<?xml version="1.0" encoding="UTF-8" standalone="no"?>
<!-- Created with Inkscape (http://www.inkscape.org/) -->

<svg
   xmlns:dc="http://purl.org/dc/elements/1.1/"
   xmlns:cc="http://creativecommons.org/ns#"
   xmlns:rdf="http://www.w3.org/1999/02/22-rdf-syntax-ns#"
   xmlns:svg="http://www.w3.org/2000/svg"
   xmlns="http://www.w3.org/2000/svg"
   xmlns:sodipodi="http://sodipodi.sourceforge.net/DTD/sodipodi-0.dtd"
   xmlns:inkscape="http://www.inkscape.org/namespaces/inkscape"
   width="210mm"
   height="200mm"
   viewBox="0 0 210 200"
   version="1.1"
   id="svg8"
   inkscape:version="0.92.4 (5da689c313, 2019-01-14)"
   sodipodi:docname="svg-loading.svg">
  <defs
     id="defs2" />
  <sodipodi:namedview
     id="base"
     pagecolor="#ffffff"
     bordercolor="#666666"
     borderopacity="1.0"
     inkscape:pageopacity="0.0"
     inkscape:pageshadow="2"
     inkscape:zoom="0.35"
     inkscape:cx="493.80182"
     inkscape:cy="367.06086"
     inkscape:document-units="mm"
     inkscape:current-layer="layer1"
     showgrid="false"
     inkscape:window-width="1366"
     inkscape:window-height="705"
     inkscape:window-x="-8"
     inkscape:window-y="-8"
     inkscape:window-maximized="1"
     inkscape:snap-global="false" />
  <metadata
     id="metadata5">
    <rdf:RDF>
      <cc:Work
         rdf:about="">
        <dc:format>image/svg+xml</dc:format>
        <dc:type
           rdf:resource="http://purl.org/dc/dcmitype/StillImage" />
        <dc:title />
      </cc:Work>
    </rdf:RDF>
  </metadata>
  <g
     inkscape:label="Layer 1"
     inkscape:groupmode="layer"
     id="layer1"
     transform="translate(0,-97)">
    <path
       transform="matrix(0.74368519,0,0,0.73645529,71.459151,84.308339)"
       style="fill:none;fill-rule:evenodd;stroke:#b700ff;stroke-width:6.75619626;stroke-linecap:round;stroke-miterlimit:4;stroke-dasharray:none;stroke-dashoffset:0;stroke-opacity:1;paint-order:markers fill stroke"
       d="m 34.017857,162.44048 c -2.649656,6.60464 -10.210177,-0.31319 -10.977355,-4.40391 -2.079006,-11.08559 10.194075,-18.25562 19.785158,-17.5508 17.156198,1.26075 26.865639,19.42477 24.12426,35.16641 -4.023084,23.10149 -28.753594,35.65586 -50.54767,30.69771 C -12.645826,199.74146 -28.116115,168.2362 -20.868916,140.42097 -11.749055,105.41834 26.618927,87.003622 60.441267,96.576348 101.40465,108.1702 122.77854,153.44607 110.85934,193.26779 96.812966,240.1963 44.602938,264.53813 -1.213357,250.25931 -54.110083,233.77386 -81.425515,174.61303 -64.778334,122.80536 -45.862749,63.93819 20.260079,33.645248 78.056874,52.66693 c 64.839266,21.339453 98.112526,94.4322 76.711886,158.21646 -0.41799,1.24581 -0.85488,2.48527 -1.31045,3.71782"
       id="path833" />
  </g>
</svg>
